<svg width="56" height="56" viewBox="0 0 56 56" fill="none" xmlns="http://www.w3.org/2000/svg">
<path d="M17.5 28C17.5 29.4503 18.6747 30.625 20.125 30.625C21.5753 30.625 22.75 29.4503 22.75 28C22.75 26.5497 21.5753 25.375 20.125 25.375C18.6747 25.375 17.5 26.5497 17.5 28ZM51.625 14C51.625 13.0331 50.8419 12.25 49.875 12.25C48.9081 12.25 48.125 13.0331 48.125 14V16.0519C47.5781 15.8572 46.9875 15.75 46.375 15.75C44.2159 15.75 42.3566 17.0603 41.5516 18.9284C40.6481 18.0163 39.6375 17.2113 38.5459 16.5266C38.1084 17.605 37.5025 18.6156 36.7434 19.5256C40.425 21.8531 42.875 25.9569 42.875 30.625C42.875 32.4888 42.5228 35.6213 42.0678 36.8659C42.0459 36.9272 42.0262 36.9906 42.0109 37.0519C40.8997 41.6325 39.0141 46.7884 38.1763 48.9978H33.6372L32.8453 46.6222C32.5872 45.8478 31.8281 45.3534 31.0188 45.4344C30.5659 45.4781 30.1503 45.5 29.7522 45.5H24.7931C24.0406 45.5 23.3713 45.9813 23.1328 46.6966L22.365 49H17.7078L12.9412 39.4669C12.8056 39.1934 12.6 38.9616 12.3462 38.7931L7.875 35.8138V27.5275L11.4319 26.3288C11.9 26.1713 12.2784 25.8234 12.4753 25.3728C13.7484 22.4656 15.9928 20.1841 18.7272 18.8431C17.3753 16.9509 16.6403 14.6978 16.625 12.3288C15.0522 11.4406 13.1797 11.1869 11.4012 11.655L7.525 12.6766C6.92125 12.8363 6.67406 13.5581 7.0525 14.0547L11.6572 20.0813C10.8653 21.0459 10.1719 22.1069 9.60531 23.2531L5.56719 24.6138C4.85625 24.8544 4.375 25.5216 4.375 26.2719V36.7522C4.375 37.3363 4.66812 37.8831 5.15375 38.2091L10.0166 41.4509L15.0587 51.5353C15.3562 52.1281 15.96 52.5022 16.625 52.5022H23.625C24.3775 52.5022 25.0469 52.0209 25.2853 51.3056L26.0531 49.0022H29.75C29.8156 49.0022 29.8812 49.0022 29.9469 49.0022L30.7147 51.3078C30.9531 52.0231 31.6225 52.5044 32.375 52.5044H39.375C40.0903 52.5044 40.7334 52.0691 41.0003 51.4041C41.1184 51.1109 43.8725 44.1897 45.3906 37.9728C46.0337 36.12 46.375 32.5456 46.375 30.6316C46.375 29.1047 46.1628 27.6259 45.7756 26.2216C45.9725 26.2434 46.1716 26.2566 46.375 26.2566C49.2691 26.2566 51.625 23.9006 51.625 21.0066C51.625 20.8184 51.6141 20.6325 51.5944 20.4488C51.6141 20.3459 51.625 20.2409 51.625 20.1316V14.0066V14ZM46.375 22.75C45.4103 22.75 44.625 21.9647 44.625 21C44.625 20.0353 45.4103 19.25 46.375 19.25C47.3397 19.25 48.125 20.0353 48.125 21C48.125 21.9647 47.3397 22.75 46.375 22.75Z" fill="url(#paint0_linear_9537_19648)"/>
<path d="M34.1862 6.06376C30.7694 2.64688 25.2284 2.64688 21.8116 6.06376C18.3947 9.48063 18.3947 15.0216 21.8116 18.4384C25.2284 21.8553 30.7694 21.8553 34.1862 18.4384C37.6031 15.0216 37.6031 9.48063 34.1862 6.06376ZM25.5259 15.9491C23.8131 15.9491 22.7391 15.0238 22.7391 13.5953H24.4716C24.5022 14.1159 24.9353 14.4222 25.6134 14.4222C26.2434 14.4222 26.53 14.1663 26.53 13.7725C26.53 13.4466 26.3134 13.2716 25.6441 13.1425L24.5809 12.9456C23.4106 12.7291 22.75 12.0881 22.75 11.095C22.75 9.79563 23.8525 8.89876 25.4669 8.89876C27.0812 8.89876 28.1947 9.79563 28.2034 11.1541H26.4709C26.4316 10.7013 26.0772 10.4059 25.4275 10.4059C24.8369 10.4059 24.5109 10.6509 24.5109 11.0075C24.5109 11.2634 24.6969 11.4406 25.3575 11.5588L26.4206 11.7556C27.6522 11.9831 28.2822 12.6416 28.2822 13.6763C28.2822 15.0063 27.2584 15.9513 25.5259 15.9513V15.9491ZM30.0431 16.7759H28.3697L32.0119 8.56626H33.6853L30.0431 16.7759Z" fill="url(#paint1_linear_9537_19648)"/>
<defs>
<linearGradient id="paint0_linear_9537_19648" x1="4.375" y1="11.4243" x2="24.325" y2="63.0534" gradientUnits="userSpaceOnUse">
<stop offset="0.272135" stop-color="#34263B"/>
<stop offset="0.658079" stop-color="#13172C"/>
</linearGradient>
<linearGradient id="paint1_linear_9537_19648" x1="19.2489" y1="21.0011" x2="36.7489" y2="3.5011" gradientUnits="userSpaceOnUse">
<stop stop-color="#F81E42"/>
<stop offset="1" stop-color="#FA6981"/>
</linearGradient>
</defs>
</svg>
