<svg width="56" height="56" viewBox="0 0 56 56" fill="none" xmlns="http://www.w3.org/2000/svg">
<path d="M22.75 28C22.75 29.4503 21.5753 30.625 20.125 30.625C18.6747 30.625 17.5 29.4503 17.5 28C17.5 26.5497 18.6747 25.375 20.125 25.375C21.5753 25.375 22.75 26.5497 22.75 28ZM51.625 14V21C51.625 23.8941 49.2691 26.25 46.375 26.25C46.1716 26.25 45.9725 26.2369 45.7756 26.215C46.1628 27.6216 46.375 29.0981 46.375 30.625C46.375 32.5391 46.0337 36.1134 45.3906 37.9662C43.8703 44.1853 41.1162 51.1066 41.0003 51.3975C40.7356 52.0625 40.0903 52.4978 39.375 52.4978H32.375C31.6225 52.4978 30.9531 52.0166 30.7147 51.3012L29.9469 48.9956C29.8812 48.9956 29.8156 48.9978 29.75 48.9978H26.0531L25.2853 51.3012C25.0469 52.0166 24.3775 52.4978 23.625 52.4978H16.625C15.9622 52.4978 15.3562 52.1237 15.0587 51.5309L10.0166 41.4466L5.15375 38.2047C4.66812 37.8809 4.375 37.3341 4.375 36.75V26.2697C4.375 25.5194 4.85406 24.8522 5.565 24.6116L9.60313 23.2509C10.1719 22.1047 10.8631 21.0437 11.655 20.0791L7.05469 14.0503C6.67625 13.5537 6.92344 12.8319 7.52719 12.6722L11.4034 11.6506C13.1819 11.1825 15.0544 11.4362 16.6272 12.3244C16.6425 14.6934 17.3797 16.9466 18.7294 18.8387C15.995 20.1819 13.7484 22.4612 12.4775 25.3684C12.2806 25.8191 11.9 26.1669 11.4341 26.3244L7.875 27.5275V35.8137L12.3462 38.7931C12.6 38.9616 12.8056 39.1934 12.9412 39.4669L17.7056 49H22.3628L23.1306 46.6966C23.3691 45.9812 24.0384 45.5 24.7909 45.5H29.75C30.1481 45.5 30.5637 45.4781 31.0166 45.4344C31.8303 45.3556 32.585 45.85 32.8431 46.6222L33.635 48.9978H38.1741C39.0141 46.7884 40.8975 41.6303 42.0087 37.0519C42.0241 36.9884 42.0438 36.9272 42.0656 36.8659C42.5206 35.6212 42.8728 32.4887 42.8728 30.625C42.8728 25.9569 40.4206 21.8531 36.7413 19.5256C37.5003 18.6156 38.1063 17.605 38.5438 16.5266C39.6375 17.2112 40.6459 18.0162 41.5494 18.9284C42.3566 17.0603 44.2159 15.75 46.375 15.75C46.9875 15.75 47.5781 15.8572 48.125 16.0519V14C48.125 13.0331 48.9081 12.25 49.875 12.25C50.8419 12.25 51.625 13.0331 51.625 14ZM48.125 21C48.125 20.0353 47.3397 19.25 46.375 19.25C45.4103 19.25 44.625 20.0353 44.625 21C44.625 21.9647 45.4103 22.75 46.375 22.75C47.3397 22.75 48.125 21.9647 48.125 21Z" fill="url(#paint0_linear_9554_370)"/>
<path d="M29.6406 13.6653C29.8703 13.8709 29.9841 14.1422 29.9841 14.4769C29.9841 14.8684 29.8506 15.1944 29.5816 15.4569C29.3147 15.7194 28.9384 15.8791 28.4594 15.9337V13.1381C29.0194 13.2825 29.4109 13.4575 29.6406 13.6653ZM26.1997 9.9225C26.1997 10.2244 26.3003 10.4694 26.5016 10.6597C26.7028 10.85 27.0659 11.0119 27.5887 11.1453V8.55093C27.1534 8.60781 26.8122 8.75875 26.5672 9.00375C26.3222 9.24875 26.1997 9.555 26.1997 9.9225ZM34.1862 18.4362C30.7694 21.8531 25.2284 21.8531 21.8116 18.4362C18.3947 15.0194 18.3947 9.47843 21.8116 6.06156C25.2284 2.64468 30.7694 2.64468 34.1862 6.06156C37.6053 9.48062 37.6053 15.0194 34.1862 18.4362ZM31.9594 14.3259C31.9594 13.5887 31.7275 12.9828 31.2637 12.5103C30.8 12.0356 30.0781 11.6922 29.0959 11.48L28.5425 11.3619V8.56625C29.3562 8.69968 29.7916 9.18093 29.8484 10.0056H31.8412C31.7975 9.06718 31.4803 8.32343 30.8962 7.77C30.31 7.21656 29.5269 6.89718 28.5447 6.8075V5.6875H27.5909V6.80968C26.565 6.88843 25.7469 7.21875 25.1387 7.805C24.5306 8.39125 24.2266 9.11968 24.2266 9.99031C24.2266 10.7275 24.4672 11.3378 24.9462 11.8234C25.4253 12.3091 26.145 12.6525 27.1053 12.8537L27.5078 12.9369V15.8834C27.0725 15.7937 26.7291 15.6078 26.4775 15.3234C26.2259 15.0391 26.0794 14.6628 26.0334 14.1925H24.0406C24.0734 15.1966 24.4037 16.0059 25.0294 16.6206C25.655 17.2353 26.4797 17.5853 27.5078 17.675V18.8125H28.4616V17.6903C29.5225 17.6116 30.3691 17.2659 31.0056 16.6534C31.6422 16.0387 31.9594 15.2622 31.9594 14.3259Z" fill="url(#paint1_linear_9554_370)"/>
<defs>
<linearGradient id="paint0_linear_9554_370" x1="4.375" y1="11.4199" x2="24.3231" y2="63.0469" gradientUnits="userSpaceOnUse">
<stop offset="0.272135" stop-color="#34263B"/>
<stop offset="0.658079" stop-color="#13172C"/>
</linearGradient>
<linearGradient id="paint1_linear_9554_370" x1="19.2489" y1="20.9989" x2="36.7489" y2="3.49726" gradientUnits="userSpaceOnUse">
<stop stop-color="#F81E42"/>
<stop offset="1" stop-color="#FA6981"/>
</linearGradient>
</defs>
</svg>
