<svg width="135" height="40" viewBox="0 0 135 40" fill="none" xmlns="http://www.w3.org/2000/svg">
<path d="M9.65549 1.22909L0 39.6959H11.0376L13.7954 28.7045H30.3486L33.1064 39.6959H44.1439L34.4853 1.22909H9.65549ZM35.8866 2.15092C36.0024 2.26294 36.1374 2.35257 36.2916 2.41338C36.4459 2.4774 36.6098 2.50621 36.7834 2.50621C36.957 2.50621 37.1177 2.4742 37.272 2.41338C37.4262 2.34937 37.558 2.26294 37.6737 2.15092C37.7895 2.03889 37.8795 1.90446 37.947 1.75082C38.0145 1.59718 38.0466 1.43074 38.0466 1.2483C38.0466 1.07226 38.0145 0.905823 37.947 0.755386C37.8795 0.60175 37.7895 0.470511 37.6737 0.358484C37.558 0.246458 37.4262 0.160044 37.272 0.0960289C37.1177 0.0320135 36.957 0 36.7834 0C36.6098 0 36.4459 0.0320135 36.2916 0.0960289C36.1374 0.160044 36.0024 0.246458 35.8866 0.358484C35.7709 0.470511 35.6809 0.60175 35.6134 0.755386C35.5459 0.909023 35.5138 1.07226 35.5138 1.2483C35.5138 1.43074 35.5459 1.59718 35.6134 1.75082C35.6777 1.90446 35.7709 2.03889 35.8866 2.15092ZM35.8191 0.828998C35.8706 0.700967 35.9445 0.585743 36.0377 0.492921C36.1309 0.396898 36.2402 0.323276 36.3688 0.268863C36.4941 0.21445 36.6323 0.18565 36.7802 0.18565C36.9248 0.18565 37.063 0.21445 37.1884 0.268863C37.3138 0.323276 37.423 0.400099 37.5163 0.492921C37.6095 0.588944 37.6834 0.700967 37.7348 0.828998C37.7862 0.960229 37.8152 1.09786 37.8152 1.2483C37.8152 1.40193 37.7895 1.54598 37.7348 1.67721C37.6834 1.80844 37.6095 1.92047 37.5163 2.01649C37.423 2.11251 37.3138 2.18933 37.1884 2.24374C37.063 2.29815 36.928 2.32696 36.7802 2.32696C36.6323 2.32696 36.4941 2.29815 36.3688 2.24374C36.2434 2.18933 36.1309 2.11251 36.0377 2.01649C35.9445 1.92047 35.8706 1.80524 35.8191 1.67721C35.7677 1.54598 35.7388 1.40514 35.7388 1.2483C35.7388 1.10106 35.7645 0.960229 35.8191 0.828998ZM36.5166 1.35713H36.7577L37.1595 1.98768H37.407L36.9859 1.34112C37.0952 1.33152 37.1884 1.29311 37.2623 1.2323C37.3363 1.17148 37.3748 1.07546 37.3748 0.941027C37.3748 0.800193 37.333 0.694571 37.2495 0.624154C37.1659 0.553737 37.0341 0.521727 36.8605 0.521727H36.2916V1.98768H36.5198V1.35713H36.5166ZM36.5166 0.707377H36.8188C36.8573 0.707377 36.8959 0.710577 36.9345 0.716979C36.973 0.72338 37.0084 0.732975 37.0373 0.748979C37.0663 0.764982 37.092 0.787395 37.1113 0.816202C37.1305 0.845009 37.1402 0.883416 37.1402 0.934629C37.1402 0.992242 37.1305 1.03705 37.108 1.06906C37.0855 1.10106 37.0566 1.12667 37.0213 1.14268C36.9859 1.15868 36.9441 1.16828 36.8991 1.17148C36.8541 1.17468 36.8027 1.17789 36.7513 1.17789H36.5134V0.707377H36.5166ZM15.8621 20.4625L18.6199 9.47107H21.8759L23.5152 16.2567L24.4955 12.8671H26.3726L28.2786 20.4593H15.8621V20.4625ZM77.3949 13.7601H73.6857V1.22909H69.7644V17.4058H77.3949V13.7601ZM86.1376 17.7099C91.3253 17.7099 94.636 14.0162 94.636 9.26943C94.636 4.5483 91.3478 0.921823 86.0187 0.921823C81.0173 0.921823 77.591 4.63792 77.591 9.33665C77.591 14.0866 80.8084 17.7099 86.1376 17.7099ZM86.0894 4.5707C88.8825 4.5707 90.525 6.69921 90.525 9.31744C90.525 11.9357 88.9982 14.0642 86.1119 14.0642C83.3894 14.0642 81.6988 12.0061 81.6988 9.31744C81.6988 6.69921 83.203 4.5707 86.0894 4.5707ZM106.32 12.5214C106.32 10.0888 105.098 8.70929 102.961 7.84509L100.92 7.05129C99.8173 6.60639 99.4412 6.16148 99.4412 5.48612C99.4412 4.80756 99.8623 4.26982 100.778 4.26982C101.694 4.26982 102.212 4.9708 102.186 5.97584H105.802C105.989 3.10155 104.581 0.925027 100.756 0.925027C97.5866 0.925027 95.5199 2.8903 95.5199 5.71658C95.5199 7.68185 96.3652 9.26942 98.0334 10.1112C98.9494 10.5561 99.7466 10.8346 100.569 11.1867C101.627 11.5836 102.283 12.0285 102.283 12.9407C102.283 13.8753 101.649 14.3683 100.733 14.3683C99.4412 14.3683 99.0201 13.3632 99.0908 12.3358H95.3817C95.2659 14.6979 96.0856 17.7131 100.733 17.7131C104.018 17.7099 106.32 15.7926 106.32 12.5214ZM74.3189 23.516L68.6362 39.6927H72.4868L73.824 35.8358H78.941L80.3038 39.6927H84.4598L78.4492 23.516H74.3189ZM74.9554 32.5614L76.3857 28.4708L77.8192 32.5614H74.9554ZM95.2467 33.288L89.1429 23.516H85.1058V39.6927H88.8857V30.132L95.1534 39.6927H99.0266V23.516H95.2467V33.288ZM104.883 23.516H101.174V39.6927H104.883C110.26 39.6927 113.545 36.6072 113.545 31.5564C113.545 26.4832 110.257 23.516 104.883 23.516ZM105.092 36.2551V26.9505C107.744 26.9281 109.457 28.4708 109.457 31.5788C109.46 34.7379 107.676 36.2551 105.092 36.2551ZM118.894 33.2656H122.555V29.6647H118.894V27.1617H122.673V23.516H114.972V39.6927H122.744V36.0471H118.894V33.2656ZM131.641 30.132L129.6 29.3382C128.498 28.8933 128.122 28.4484 128.122 27.7731C128.122 27.0945 128.543 26.5568 129.459 26.5568C130.375 26.5568 130.892 27.2577 130.867 28.2628H134.483C134.669 25.3885 133.261 23.212 129.436 23.212C126.267 23.212 124.2 25.1772 124.2 28.0035C124.2 29.9688 125.046 31.5564 126.714 32.3982C127.63 32.8431 128.427 33.1216 129.25 33.4736C130.307 33.8705 130.963 34.3154 130.963 35.2277C130.963 36.1623 130.33 36.6552 129.414 36.6552C128.122 36.6552 127.701 35.6502 127.771 34.6227H124.062C123.946 36.9849 124.766 40 129.414 40C132.702 40 135 38.0827 135 34.8116C135 32.3758 133.779 30.9962 131.641 30.132ZM55.5383 39.6927H56.3579V1.22909H55.5383V39.6927Z" fill="#00C8FF"/>
</svg>
